<svg preserveAspectRatio="none" overflow="visible" style="display: block;" width="32" height="32" viewBox="0 0 32 32" fill="none" xmlns="http://www.w3.org/2000/svg">
<g id="Group 5">
<circle id="Ellipse 2" cx="16" cy="16" r="16" fill="var(--fill-0, white)"/>
<path id="Vector" d="M16 0C12.8355 0 9.74207 0.938383 7.11088 2.69649C4.4797 4.45459 2.42894 6.95345 1.21793 9.87706C0.00693255 12.8007 -0.309921 16.0177 0.307443 19.1214C0.924806 22.2251 2.44866 25.0761 4.6863 27.3137C6.92394 29.5513 9.77486 31.0752 12.8786 31.6926C15.9823 32.3099 19.1993 31.9931 22.1229 30.7821C25.0466 29.5711 27.5454 27.5203 29.3035 24.8891C31.0616 22.2579 32 19.1645 32 16C31.9919 11.759 30.3035 7.69409 27.3047 4.69527C24.3059 1.69645 20.241 0.00813226 16 0V0ZM23.6154 13.2L14.6 21.8154C14.3669 22.0346 14.0584 22.1558 13.7385 22.1538C13.5821 22.1561 13.4268 22.1273 13.2815 22.0692C13.1363 22.0111 13.004 21.9249 12.8923 21.8154L8.38462 17.5077C8.25959 17.3986 8.15791 17.2654 8.08569 17.116C8.01347 16.9666 7.9722 16.8042 7.96436 16.6384C7.95651 16.4727 7.98226 16.3071 8.04006 16.1516C8.09786 15.996 8.1865 15.8538 8.30067 15.7334C8.41484 15.613 8.55218 15.5169 8.70442 15.451C8.85667 15.385 9.02068 15.3505 9.1866 15.3495C9.35252 15.3486 9.51692 15.3812 9.66992 15.4453C9.82293 15.5095 9.96137 15.604 10.0769 15.7231L13.7385 19.2154L21.9231 11.4154C22.1624 11.2066 22.4731 11.0984 22.7904 11.1134C23.1076 11.1284 23.4068 11.2655 23.6253 11.4959C23.8438 11.7264 23.9648 12.0324 23.963 12.3499C23.9611 12.6675 23.8366 12.9721 23.6154 13.2Z" fill="var(--fill-0, #8CB90E)"/>
</g>
</svg>
