<svg preserveAspectRatio="none" overflow="visible" style="display: block;" width="82.2208" height="14" viewBox="0 0 82.2208 14" fill="none" xmlns="http://www.w3.org/2000/svg">
<g id="Group 1911972260">
<path id="Vector" d="M6.99322 0.216469C7.02539 0.151476 7.07508 0.0967679 7.13669 0.0585182C7.1983 0.0202685 7.26938 0 7.3419 0C7.41442 0 7.48549 0.0202685 7.5471 0.0585182C7.60871 0.0967679 7.65841 0.151476 7.69058 0.216469L9.38625 3.65113C9.49796 3.87719 9.66285 4.07277 9.86678 4.22109C10.0707 4.3694 10.3076 4.46601 10.5571 4.50263L14.3492 5.05758C14.4211 5.06799 14.4886 5.0983 14.5441 5.14508C14.5996 5.19186 14.6409 5.25324 14.6634 5.32229C14.6859 5.39133 14.6885 5.46528 14.6712 5.53577C14.6538 5.60626 14.617 5.67048 14.565 5.72117L11.8226 8.39167C11.6417 8.56792 11.5064 8.78548 11.4283 9.02562C11.3501 9.26577 11.3315 9.5213 11.3741 9.77023L12.0215 13.5433C12.0342 13.6151 12.0264 13.689 11.9991 13.7567C11.9718 13.8243 11.926 13.8829 11.867 13.9257C11.808 13.9686 11.7382 13.994 11.6654 13.9991C11.5926 14.0041 11.5199 13.9886 11.4556 13.9544L8.06568 12.1721C7.84232 12.0548 7.59381 11.9935 7.34153 11.9935C7.08925 11.9935 6.84074 12.0548 6.61738 12.1721L3.22824 13.9544C3.16388 13.9884 3.09126 14.0038 3.01863 13.9986C2.946 13.9934 2.87627 13.968 2.81738 13.9252C2.75849 13.8823 2.71281 13.8238 2.68552 13.7563C2.65823 13.6888 2.65043 13.615 2.66301 13.5433L3.30972 9.77096C3.35244 9.52192 3.33393 9.26622 3.25579 9.02593C3.17766 8.78564 3.04223 8.56796 2.86121 8.39167L0.11877 5.7219C0.0663541 5.67128 0.0292103 5.60695 0.0115703 5.53624C-0.00606966 5.46553 -0.00349659 5.3913 0.0189963 5.32198C0.0414892 5.25267 0.0829975 5.19106 0.138793 5.14419C0.194589 5.09731 0.262428 5.06705 0.334583 5.05685L4.12599 4.50263C4.37576 4.4663 4.61296 4.36981 4.81717 4.22148C5.02138 4.07315 5.18649 3.87741 5.29828 3.65113L6.99322 0.216469Z" fill="var(--fill-0, #F7C638)"/>
<path id="Vector_2" d="M23.8773 0.216469C23.9094 0.151476 23.9591 0.0967679 24.0207 0.0585182C24.0823 0.0202685 24.1534 0 24.2259 0C24.2985 0 24.3695 0.0202685 24.4311 0.0585182C24.4928 0.0967679 24.5425 0.151476 24.5746 0.216469L26.2703 3.65113C26.382 3.87719 26.5469 4.07277 26.7508 4.22109C26.9548 4.3694 27.1916 4.46601 27.4411 4.50263L31.2333 5.05758C31.3051 5.06799 31.3726 5.0983 31.4281 5.14508C31.4837 5.19186 31.525 5.25324 31.5474 5.32229C31.5699 5.39133 31.5726 5.46528 31.5552 5.53577C31.5378 5.60626 31.5011 5.67048 31.4491 5.72117L28.7066 8.39167C28.5258 8.56792 28.3905 8.78548 28.3123 9.02562C28.2342 9.26577 28.2156 9.5213 28.2581 9.77023L28.9056 13.5433C28.9182 13.6151 28.9105 13.689 28.8832 13.7567C28.8559 13.8243 28.8101 13.8829 28.7511 13.9257C28.6921 13.9686 28.6222 13.994 28.5494 13.9991C28.4767 14.0041 28.404 13.9886 28.3396 13.9544L24.9497 12.1721C24.7264 12.0548 24.4779 11.9935 24.2256 11.9935C23.9733 11.9935 23.7248 12.0548 23.5014 12.1721L20.1123 13.9544C20.0479 13.9884 19.9753 14.0038 19.9027 13.9986C19.83 13.9934 19.7603 13.968 19.7014 13.9252C19.6425 13.8823 19.5969 13.8238 19.5696 13.7563C19.5423 13.6888 19.5345 13.615 19.5471 13.5433L20.1938 9.77096C20.2365 9.52192 20.218 9.26622 20.1398 9.02593C20.0617 8.78564 19.9263 8.56796 19.7453 8.39167L17.0028 5.7219C16.9504 5.67128 16.9133 5.60695 16.8956 5.53624C16.878 5.46553 16.8805 5.3913 16.903 5.32198C16.9255 5.25267 16.967 5.19106 17.0228 5.14419C17.0786 5.09731 17.1465 5.06705 17.2186 5.05685L21.01 4.50263C21.2598 4.4663 21.497 4.36981 21.7012 4.22148C21.9054 4.07315 22.0705 3.87741 22.1823 3.65113L23.8773 0.216469Z" fill="var(--fill-0, #F7C638)"/>
<path id="Vector_3" d="M40.7635 0.216469C40.7956 0.151476 40.8453 0.0967679 40.9069 0.0585182C40.9685 0.0202685 41.0396 0 41.1121 0C41.1847 0 41.2557 0.0202685 41.3173 0.0585182C41.379 0.0967679 41.4286 0.151476 41.4608 0.216469L43.1565 3.65113C43.2682 3.87719 43.4331 4.07277 43.637 4.22109C43.841 4.3694 44.0778 4.46601 44.3273 4.50263L48.1195 5.05758C48.1913 5.06799 48.2588 5.0983 48.3143 5.14508C48.3699 5.19186 48.4112 5.25324 48.4336 5.32229C48.4561 5.39133 48.4588 5.46528 48.4414 5.53577C48.424 5.60626 48.3873 5.67048 48.3353 5.72117L45.5928 8.39167C45.412 8.56792 45.2766 8.78548 45.1985 9.02562C45.1204 9.26577 45.1018 9.5213 45.1443 9.77023L45.7918 13.5433C45.8044 13.6151 45.7967 13.689 45.7694 13.7567C45.7421 13.8243 45.6963 13.8829 45.6373 13.9257C45.5783 13.9686 45.5084 13.994 45.4356 13.9991C45.3629 14.0041 45.2902 13.9886 45.2258 13.9544L41.8359 12.1721C41.6126 12.0548 41.3641 11.9935 41.1118 11.9935C40.8595 11.9935 40.611 12.0548 40.3876 12.1721L36.9985 13.9544C36.9341 13.9884 36.8615 14.0038 36.7889 13.9986C36.7162 13.9934 36.6465 13.968 36.5876 13.9252C36.5287 13.8823 36.483 13.8238 36.4558 13.7563C36.4285 13.6888 36.4207 13.615 36.4333 13.5433L37.08 9.77096C37.1227 9.52192 37.1042 9.26622 37.026 9.02593C36.9479 8.78564 36.8125 8.56796 36.6315 8.39167L33.889 5.7219C33.8366 5.67128 33.7995 5.60695 33.7818 5.53624C33.7642 5.46553 33.7667 5.3913 33.7892 5.32198C33.8117 5.25267 33.8532 5.19106 33.909 5.14419C33.9648 5.09731 34.0327 5.06705 34.1048 5.05685L37.8962 4.50263C38.146 4.4663 38.3832 4.36981 38.5874 4.22148C38.7916 4.07315 38.9567 3.87741 39.0685 3.65113L40.7635 0.216469Z" fill="var(--fill-0, #F7C638)"/>
<path id="Vector_4" d="M57.6475 0.216469C57.6797 0.151476 57.7294 0.0967679 57.791 0.0585182C57.8526 0.0202685 57.9237 0 57.9962 0C58.0687 0 58.1398 0.0202685 58.2014 0.0585182C58.263 0.0967679 58.3127 0.151476 58.3449 0.216469L60.0405 3.65113C60.1522 3.87719 60.3171 4.07277 60.5211 4.22109C60.725 4.3694 60.9619 4.46601 61.2114 4.50263L65.0035 5.05758C65.0754 5.06799 65.1429 5.0983 65.1984 5.14508C65.2539 5.19186 65.2952 5.25324 65.3177 5.32229C65.3401 5.39133 65.3428 5.46528 65.3254 5.53577C65.3081 5.60626 65.2713 5.67048 65.2193 5.72117L62.4769 8.39167C62.296 8.56792 62.1607 8.78548 62.0826 9.02562C62.0044 9.26577 61.9858 9.5213 62.0284 9.77023L62.6758 13.5433C62.6885 13.6151 62.6807 13.689 62.6534 13.7567C62.6261 13.8243 62.5803 13.8829 62.5213 13.9257C62.4623 13.9686 62.3924 13.994 62.3197 13.9991C62.2469 14.0041 62.1742 13.9886 62.1098 13.9544L58.72 12.1721C58.4966 12.0548 58.2481 11.9935 57.9958 11.9935C57.7435 11.9935 57.495 12.0548 57.2717 12.1721L53.8825 13.9544C53.8182 13.9884 53.7455 14.0038 53.6729 13.9986C53.6003 13.9934 53.5306 13.968 53.4717 13.9252C53.4128 13.8823 53.3671 13.8238 53.3398 13.7563C53.3125 13.6888 53.3047 13.615 53.3173 13.5433L53.964 9.77096C54.0067 9.52192 53.9882 9.26622 53.9101 9.02593C53.8319 8.78564 53.6965 8.56796 53.5155 8.39167L50.7731 5.7219C50.7206 5.67128 50.6835 5.60695 50.6659 5.53624C50.6482 5.46553 50.6508 5.3913 50.6733 5.32198C50.6958 5.25267 50.7373 5.19106 50.7931 5.14419C50.8489 5.09731 50.9167 5.06705 50.9889 5.05685L54.7803 4.50263C55.03 4.4663 55.2672 4.36981 55.4715 4.22148C55.6757 4.07315 55.8408 3.87741 55.9526 3.65113L57.6475 0.216469Z" fill="var(--fill-0, #F7C638)"/>
<path id="Vector_5" d="M74.5316 0.216469C74.5637 0.151476 74.6134 0.0967679 74.675 0.0585182C74.7366 0.0202685 74.8077 0 74.8802 0C74.9527 0 75.0238 0.0202685 75.0854 0.0585182C75.147 0.0967679 75.1967 0.151476 75.2289 0.216469L76.9246 3.65113C77.0363 3.87719 77.2012 4.07277 77.4051 4.22109C77.609 4.3694 77.8459 4.46601 78.0954 4.50263L81.8875 5.05758C81.9594 5.06799 82.0269 5.0983 82.0824 5.14508C82.138 5.19186 82.1793 5.25324 82.2017 5.32229C82.2242 5.39133 82.2269 5.46528 82.2095 5.53577C82.1921 5.60626 82.1553 5.67048 82.1034 5.72117L79.3609 8.39167C79.1801 8.56792 79.0447 8.78548 78.9666 9.02562C78.8885 9.26577 78.8699 9.5213 78.9124 9.77023L79.5598 13.5433C79.5725 13.6151 79.5648 13.689 79.5375 13.7567C79.5101 13.8243 79.4644 13.8829 79.4054 13.9257C79.3464 13.9686 79.2765 13.994 79.2037 13.9991C79.131 14.0041 79.0583 13.9886 78.9939 13.9544L75.604 12.1721C75.3806 12.0548 75.1321 11.9935 74.8799 11.9935C74.6276 11.9935 74.3791 12.0548 74.1557 12.1721L70.7666 13.9544C70.7022 13.9884 70.6296 14.0038 70.557 13.9986C70.4843 13.9934 70.4146 13.968 70.3557 13.9252C70.2968 13.8823 70.2511 13.8238 70.2238 13.7563C70.1966 13.6888 70.1888 13.615 70.2013 13.5433L70.848 9.77096C70.8908 9.52192 70.8723 9.26622 70.7941 9.02593C70.716 8.78564 70.5806 8.56796 70.3995 8.39167L67.6571 5.7219C67.6047 5.67128 67.5675 5.60695 67.5499 5.53624C67.5323 5.46553 67.5348 5.3913 67.5573 5.32198C67.5798 5.25267 67.6213 5.19106 67.6771 5.14419C67.7329 5.09731 67.8008 5.06705 67.8729 5.05685L71.6643 4.50263C71.9141 4.4663 72.1513 4.36981 72.3555 4.22148C72.5597 4.07315 72.7248 3.87741 72.8366 3.65113L74.5316 0.216469Z" fill="var(--fill-0, #F7C638)"/>
</g>
</svg>
