<svg preserveAspectRatio="none" overflow="visible" style="display: block;" width="12.6819" height="12.9527" viewBox="0 0 12.6819 12.9527" fill="none" xmlns="http://www.w3.org/2000/svg">
<g id="Group 2085663699">
<path id="Vector" d="M1.8996 0.0121287C1.95425 0.00454198 2.06714 0.00330016 2.12423 0.00295578L4.22146 0.00383221L5.16423 0.00333126C5.69132 0.00273642 6.11892 -0.0391211 6.6116 0.191466C6.98196 0.364762 7.17064 0.558991 7.45167 0.837281L10.7928 4.17419L11.692 5.0728C11.9135 5.29402 12.1858 5.5381 12.3554 5.79563C12.7875 6.4517 12.7895 7.38801 12.369 8.05016C12.2148 8.29289 12.0091 8.48 11.8062 8.68193L11.2373 9.2512L9.18442 11.3173L8.40915 12.0971C8.24385 12.2633 8.04692 12.4786 7.8572 12.6077C7.59433 12.7892 7.29065 12.9031 6.97319 12.9391C6.4344 12.9992 5.91887 12.8594 5.4952 12.5178C5.38378 12.4279 5.2594 12.2966 5.15668 12.1934L4.65447 11.6897L2.86221 9.89519L1.22536 8.2523L0.773323 7.7998C0.632367 7.65882 0.505438 7.53975 0.387577 7.37726C0.179134 7.08569 0.0505138 6.74465 0.0144688 6.3881C-0.00792622 6.17049 0.00234239 5.82802 0.00239457 5.60157L0.00274935 4.21987L0.00227992 2.71684C0.002186 1.94446 -0.0575275 1.42474 0.472972 0.776858C0.827797 0.342252 1.34124 0.0670311 1.8996 0.0121287Z" fill="var(--fill-0, #306C00)"/>
<path id="Vector_2" d="M2.111 0.935643L2.30519 0.935132L4.51318 0.934829H5.29318C5.54303 0.935362 5.89416 0.917423 6.12709 0.994104C6.46364 1.1049 6.77755 1.48788 7.02654 1.73726L8.05634 2.76715L11.3889 6.09697C11.6286 6.33559 11.7579 6.59532 11.7565 6.94168C11.7559 7.17189 11.6861 7.39668 11.5563 7.58681C11.4755 7.70589 11.3199 7.85094 11.2149 7.95613L10.7216 8.451L8.86552 10.3205C8.59482 10.6088 8.27424 10.9097 7.99665 11.1961C7.84888 11.3488 7.4542 11.7679 7.29933 11.8687C7.15031 11.9661 6.97854 12.0231 6.80082 12.0343C6.26004 12.0637 6.03139 11.7573 5.68786 11.4105L5.07872 10.7995L2.99916 8.71032L1.75766 7.46691L1.39004 7.09957C1.13957 6.84891 0.946975 6.63174 0.936352 6.24991C0.927481 5.93069 0.933096 5.60924 0.933116 5.28967L0.932699 3.49596L0.93272 2.4671C0.932856 2.32417 0.926313 2.02056 0.947717 1.8947C0.984586 1.67986 1.0829 1.48028 1.23076 1.32013C1.47496 1.05553 1.75856 0.947978 2.111 0.935643Z" fill="var(--fill-0, #ECF2DB)"/>
<path id="Vector_3" d="M3.22298 2.37453C3.69866 2.31854 4.13002 2.65784 4.18765 3.13332C4.24529 3.60881 3.90749 4.04135 3.4322 4.10062C2.95459 4.16019 2.51947 3.82037 2.46156 3.34255C2.40364 2.86474 2.74497 2.43079 3.22298 2.37453Z" fill="var(--fill-0, #306C00)"/>
</g>
</svg>
