<svg preserveAspectRatio="none" overflow="visible" style="display: block;" width="39.6178" height="36" viewBox="0 0 39.6178 36" fill="none" xmlns="http://www.w3.org/2000/svg">
<g id="Group 1911972166">
<path id="Vector" d="M39.4083 4.81148C39.225 4.58236 38.9501 4.44489 38.6522 4.44489H7.81293L7.1714 0.801913C7.07975 0.343677 6.69025 0 6.2091 0H0.985208C0.435325 0 0 0.435324 0 0.985208C0 1.53509 0.435325 1.97042 0.985208 1.97042H5.36136L10.0125 27.9295C10.1041 28.3877 10.4936 28.7314 10.9748 28.7314H34.1386C34.6885 28.7314 35.1238 28.2961 35.1238 27.7462C35.1238 27.1963 34.6885 26.761 34.1386 26.761H11.7996L11.0435 22.591H34.7801C35.2384 22.591 35.6279 22.2703 35.7195 21.835L39.5916 5.65922C39.6604 5.36136 39.5916 5.06351 39.4083 4.83439V4.81148ZM34.0011 20.6206H10.6998L8.15661 6.3924H37.415L34.0011 20.6206Z" fill="var(--fill-0, #60413F)"/>
<path id="Vector_2" d="M15.1825 35.2937C16.8326 34.9036 17.8541 33.2497 17.464 31.5996C17.074 29.9494 15.42 28.928 13.7699 29.318C12.1198 29.7081 11.0983 31.362 11.4884 33.0122C11.8784 34.6623 13.5323 35.6838 15.1825 35.2937Z" fill="var(--fill-0, #60413F)"/>
<path id="Vector_3" d="M31.092 35.2788C32.7422 34.8887 33.7636 33.2348 33.3736 31.5847C32.9835 29.9346 31.3296 28.9131 29.6794 29.3031C28.0293 29.6932 27.0078 31.3471 27.3979 32.9973C27.788 34.6474 29.4419 35.6689 31.092 35.2788Z" fill="var(--fill-0, #60413F)"/>
</g>
</svg>
